<?xml version="1.0" standalone="no"?>
<!DOCTYPE svg PUBLIC "-//W3C//DTD SVG 20010904//EN"
 "http://www.w3.org/TR/2001/REC-SVG-20010904/DTD/svg10.dtd">
<svg version="1.0" xmlns="http://www.w3.org/2000/svg"
 width="3375.000000pt" height="2025.000000pt" viewBox="0 0 3375.000000 2025.000000"
 preserveAspectRatio="xMidYMid meet">

<g transform="translate(0.000000,2025.000000) scale(0.100000,-0.100000)"
fill="#000000" stroke="none">
<path d="M12195 17121 l-3720 -2366 2893 -3 2892 -2 0 -5680 0 -5680 830 0
830 0 2 2243 3 2242 933 3 932 2 0 -2245 0 -2245 835 0 835 0 0 5680 0 5680
2893 2 2894 3 -3721 2366 -3721 2366 -6 -3166 c-3 -1741 -7 -4018 -8 -5058
l-1 -1893 -935 0 -935 0 0 5057 c0 2781 -1 5057 -2 5058 -2 1 -1677 -1063
-3723 -2364z"/>
<path d="M22595 13969 c-673 -51 -1219 -302 -1572 -722 -303 -362 -478 -817
-549 -1432 -25 -217 -26 -717 -1 -910 84 -644 296 -1169 681 -1681 272 -363
482 -580 1221 -1261 275 -253 569 -548 686 -688 358 -428 538 -809 590 -1249
17 -149 6 -475 -21 -600 -74 -343 -254 -543 -555 -618 -129 -32 -400 -32 -526
-1 -318 80 -490 282 -565 663 -14 70 -17 172 -21 578 l-5 492 -775 0 -775 0 5
-517 c4 -457 7 -536 25 -669 52 -369 128 -633 262 -909 342 -705 980 -1096
1895 -1165 896 -66 1666 190 2116 704 348 396 542 934 589 1631 61 921 -172
1722 -710 2430 -230 304 -575 661 -1115 1155 -602 552 -875 852 -1073 1180
-233 386 -334 796 -302 1223 12 166 22 228 56 344 79 272 245 443 492 507 149
39 400 37 549 -4 235 -65 396 -228 477 -488 50 -159 58 -241 63 -604 l5 -338
775 0 775 0 -5 363 c-5 358 -13 464 -52 687 -60 349 -188 698 -349 954 -163
257 -402 487 -662 637 -425 245 -1009 355 -1629 308z"/>
<path d="M8570 8625 l0 -5235 820 0 820 0 2 1968 3 1967 570 6 c463 4 593 9
690 23 463 66 834 206 1124 425 428 321 704 840 801 1501 39 266 42 387 37
1410 -4 1012 -4 1017 -48 1278 -89 533 -288 957 -593 1265 -365 367 -869 570
-1536 617 -87 6 -653 10 -1417 10 l-1273 0 0 -5235z m2525 3735 c219 -17 356
-71 471 -185 112 -112 182 -269 215 -490 20 -128 20 -2059 1 -2183 -65 -407
-243 -612 -584 -667 -73 -12 -189 -15 -540 -15 l-448 0 0 1768 c0 973 3 1772
7 1775 10 11 742 8 878 -3z"/>
<path d="M10275 2535 c-95 -21 -170 -53 -232 -99 -78 -57 -120 -107 -157 -186
-25 -54 -31 -80 -34 -157 -12 -269 137 -415 560 -551 173 -56 239 -86 293
-134 55 -48 79 -101 79 -179 0 -111 -62 -189 -181 -225 -58 -18 -213 -20 -274
-4 -138 37 -222 127 -244 258 l-7 42 -140 0 -140 0 6 -57 c23 -192 112 -316
291 -404 112 -54 180 -70 331 -76 163 -7 264 11 382 67 152 73 246 194 260
338 31 301 -126 475 -548 608 -252 80 -353 145 -380 244 -32 117 49 249 176
286 80 23 221 16 289 -15 97 -43 175 -151 175 -241 l0 -30 140 0 140 0 0 43
c0 58 -25 150 -57 209 -14 26 -56 77 -94 113 -117 113 -267 166 -471 164 -57
0 -130 -7 -163 -14z"/>
<path d="M14272 2535 c-171 -39 -336 -168 -419 -330 -80 -157 -98 -279 -90
-624 4 -195 9 -249 26 -314 66 -250 255 -440 488 -491 91 -20 251 -21 351 -1
268 54 461 272 462 523 l0 52 -139 0 -138 0 -6 -65 c-4 -36 -15 -85 -26 -110
-27 -62 -93 -129 -154 -156 -45 -21 -67 -24 -172 -24 -107 0 -125 3 -169 24
-105 52 -191 177 -221 318 -20 95 -20 541 0 636 30 141 110 258 216 314 50 26
62 28 169 28 110 0 118 -1 182 -33 40 -20 81 -49 103 -75 39 -45 75 -145 75
-208 l0 -39 140 0 140 0 0 55 c0 239 -164 440 -416 510 -83 23 -319 29 -402
10z"/>
<path d="M17714 2535 c-135 -29 -280 -137 -343 -254 -34 -64 -61 -164 -61
-228 l0 -43 139 0 139 0 6 53 c14 112 85 211 174 241 54 19 145 21 193 5 112
-38 174 -162 149 -301 -26 -144 -86 -230 -504 -712 l-276 -319 0 -98 0 -99
565 0 565 0 0 115 0 115 -381 0 c-220 0 -379 4 -377 9 2 5 89 107 194 227 340
390 453 549 490 688 18 65 18 206 0 271 -45 171 -176 293 -355 331 -82 17
-236 17 -317 -1z"/>
<path d="M19107 2534 c-152 -37 -278 -140 -347 -285 -67 -142 -72 -191 -68
-630 4 -327 7 -393 22 -444 31 -107 76 -185 151 -260 110 -110 223 -155 395
-155 169 0 286 45 391 149 46 46 77 89 102 141 70 144 72 158 72 605 0 356 -2
407 -18 465 -61 218 -207 370 -398 415 -79 18 -224 18 -302 -1z m286 -248 c52
-30 94 -86 123 -161 18 -46 19 -81 19 -475 0 -424 0 -425 -24 -484 -28 -71
-82 -133 -136 -157 -45 -21 -148 -25 -206 -9 -56 16 -122 80 -155 152 l-29 63
0 440 0 440 31 66 c33 70 87 124 145 146 20 7 65 11 110 10 61 -3 85 -9 122
-31z"/>
<path d="M20515 2520 c-154 -16 -288 -29 -297 -29 -16 -1 -18 -13 -18 -116 l0
-115 185 0 185 0 0 -740 0 -740 145 0 145 0 0 885 0 885 -32 -1 c-18 -1 -159
-14 -313 -29z"/>
<path d="M21907 2534 c-152 -37 -278 -140 -347 -285 -67 -142 -72 -191 -68
-630 4 -327 7 -393 22 -444 31 -107 76 -185 151 -260 110 -110 223 -155 395
-155 169 0 286 45 391 149 46 46 77 89 102 141 70 144 72 158 72 605 0 356 -2
407 -18 465 -61 218 -207 370 -398 415 -79 18 -224 18 -302 -1z m286 -248 c52
-30 94 -86 123 -161 18 -46 19 -81 19 -475 0 -424 0 -425 -24 -484 -28 -71
-82 -133 -136 -157 -45 -21 -148 -25 -206 -9 -56 16 -122 80 -155 152 l-29 63
0 440 0 440 31 66 c33 70 87 124 145 146 20 7 65 11 110 10 61 -3 85 -9 122
-31z"/>
<path d="M11400 1655 l0 -875 145 0 145 0 0 875 0 875 -145 0 -145 0 0 -875z"/>
<path d="M12090 1655 l0 -875 140 0 140 0 0 630 c0 347 3 630 8 630 4 0 181
-282 393 -628 l386 -627 146 -3 147 -3 0 876 0 875 -145 0 -145 0 0 -630 c0
-346 -3 -630 -7 -630 -5 1 -181 284 -393 630 l-385 629 -142 1 -143 0 0 -875z"/>
<path d="M15380 1655 l0 -875 545 0 545 0 0 115 0 115 -402 2 -403 3 0 275 0
275 343 3 342 2 0 115 0 115 -345 0 -345 0 2 248 3 247 398 3 397 2 0 115 0
115 -540 0 -540 0 0 -875z"/>
</g>
</svg>
